<svg width="63" height="63" viewBox="0 0 63 63" fill="none" xmlns="http://www.w3.org/2000/svg">
<path fill-rule="evenodd" clip-rule="evenodd" d="M31.5 0C14.1041 0 0 14.1022 0 31.5C0 48.8959 14.1041 63 31.5 63C48.8978 63 63 48.8959 63 31.5C63 14.1022 48.8978 0 31.5 0V0Z" fill="#3B599F"/>
<path fill-rule="evenodd" clip-rule="evenodd" d="M37.3727 22.9426L35.2438 22.944C33.5743 22.944 33.2506 23.7302 33.2506 24.8836V27.4287H37.2328L36.714 31.4159H33.2506V41.6439H29.0988V31.4159H25.627V27.4287H29.0988V24.4898C29.0988 21.0772 31.2009 19.2202 34.2698 19.2202C35.74 19.2202 37.0038 19.3281 37.3727 19.3772V22.9426Z" fill="white"/>
</svg>
