<svg width="59" height="59" viewBox="0 0 59 59" fill="none" xmlns="http://www.w3.org/2000/svg">
<rect width="59" height="59" rx="29.5" fill="url(#paint0_radial_309_478)"/>
<path d="M29.5 17.4157C33.4096 17.4157 33.9428 17.4157 35.5422 17.4157C36.9639 17.4157 37.6747 17.7711 38.2078 17.9488C38.9187 18.3042 39.4518 18.4819 39.9849 19.0151C40.5181 19.5482 40.8735 20.0813 41.0512 20.7922C41.2289 21.3253 41.4066 22.0361 41.5843 23.4578C41.5843 25.0572 41.5843 25.4127 41.5843 29.5C41.5843 33.5874 41.5843 33.9428 41.5843 35.5422C41.5843 36.9639 41.2289 37.6747 41.0512 38.2078C40.6958 38.9187 40.5181 39.4518 39.9849 39.9849C39.4518 40.5181 38.9187 40.8735 38.2078 41.0512C37.6747 41.2289 36.9639 41.4066 35.5422 41.5843C33.9428 41.5843 33.5874 41.5843 29.5 41.5843C25.4127 41.5843 25.0572 41.5843 23.4578 41.5843C22.0361 41.5843 21.3253 41.2289 20.7922 41.0512C20.0813 40.6958 19.5482 40.5181 19.0151 39.9849C18.4819 39.4518 18.1265 38.9187 17.9488 38.2078C17.7711 37.6747 17.5934 36.9639 17.4157 35.5422C17.4157 33.9428 17.4157 33.5874 17.4157 29.5C17.4157 25.4127 17.4157 25.0572 17.4157 23.4578C17.4157 22.0361 17.7711 21.3253 17.9488 20.7922C18.3042 20.0813 18.4819 19.5482 19.0151 19.0151C19.5482 18.4819 20.0813 18.1265 20.7922 17.9488C21.3253 17.7711 22.0361 17.5934 23.4578 17.4157C25.0572 17.4157 25.5904 17.4157 29.5 17.4157ZM29.5 14.75C25.4127 14.75 25.0572 14.75 23.4578 14.75C21.8584 14.75 20.7922 15.1054 19.9036 15.4608C19.0151 15.8163 18.1265 16.3494 17.238 17.238C16.3494 18.1265 15.994 18.8374 15.4608 19.9036C15.1054 20.7922 14.9277 21.8584 14.75 23.4578C14.75 25.0572 14.75 25.5904 14.75 29.5C14.75 33.5874 14.75 33.9428 14.75 35.5422C14.75 37.1416 15.1054 38.2078 15.4608 39.0964C15.8163 39.9849 16.3494 40.8735 17.238 41.762C18.1265 42.6506 18.8374 43.006 19.9036 43.5392C20.7922 43.8946 21.8584 44.0723 23.4578 44.25C25.0572 44.25 25.5904 44.25 29.5 44.25C33.4096 44.25 33.9428 44.25 35.5422 44.25C37.1416 44.25 38.2078 43.8946 39.0964 43.5392C39.9849 43.1837 40.8735 42.6506 41.762 41.762C42.6506 40.8735 43.006 40.1627 43.5392 39.0964C43.8946 38.2078 44.0723 37.1416 44.25 35.5422C44.25 33.9428 44.25 33.4096 44.25 29.5C44.25 25.5904 44.25 25.0572 44.25 23.4578C44.25 21.8584 43.8946 20.7922 43.5392 19.9036C43.1837 19.0151 42.6506 18.1265 41.762 17.238C40.8735 16.3494 40.1627 15.994 39.0964 15.4608C38.2078 15.1054 37.1416 14.9277 35.5422 14.75C33.9428 14.75 33.5874 14.75 29.5 14.75Z" fill="white"/>
<path d="M29.5 21.8584C25.2349 21.8584 21.8584 25.2349 21.8584 29.5C21.8584 33.7651 25.2349 37.1416 29.5 37.1416C33.7651 37.1416 37.1416 33.7651 37.1416 29.5C37.1416 25.2349 33.7651 21.8584 29.5 21.8584ZM29.5 34.4759C26.8343 34.4759 24.5241 32.3434 24.5241 29.5C24.5241 26.8343 26.6566 24.5241 29.5 24.5241C32.1657 24.5241 34.4759 26.6566 34.4759 29.5C34.4759 32.1657 32.1657 34.4759 29.5 34.4759Z" fill="white"/>
<path d="M37.3193 23.4578C38.3007 23.4578 39.0964 22.6622 39.0964 21.6807C39.0964 20.6993 38.3007 19.9036 37.3193 19.9036C36.3378 19.9036 35.5422 20.6993 35.5422 21.6807C35.5422 22.6622 36.3378 23.4578 37.3193 23.4578Z" fill="white"/>
<defs>
<radialGradient id="paint0_radial_309_478" cx="0" cy="0" r="1" gradientUnits="userSpaceOnUse" gradientTransform="translate(60.1869 1.19844) scale(136.249)">
<stop stop-color="#F9ED32"/>
<stop offset="0.36" stop-color="#EE2A7B"/>
<stop offset="0.44" stop-color="#D22A8A"/>
<stop offset="0.6" stop-color="#8B2AB2"/>
<stop offset="0.83" stop-color="#1B2AF0"/>
<stop offset="0.88" stop-color="#002AFF"/>
</radialGradient>
</defs>
</svg>
