<svg width="63" height="63" viewBox="0 0 63 63" fill="none" xmlns="http://www.w3.org/2000/svg">
<path fill-rule="evenodd" clip-rule="evenodd" d="M31.5 0C14.1022 0 0 14.1022 0 31.5C0 48.8959 14.1022 63 31.5 63C48.8978 63 63 48.8959 63 31.5C63 14.1022 48.8978 0 31.5 0Z" fill="#0E76A8"/>
<path fill-rule="evenodd" clip-rule="evenodd" d="M41.683 41.6455H37.4716V35.0545C37.4716 33.483 37.4436 31.4617 35.2826 31.4617C33.0911 31.4617 32.757 33.1743 32.757 34.9427V41.6455H28.5493V28.0925H32.5867V29.9461H32.6452C33.2067 28.8802 34.5813 27.7559 36.6305 27.7559C40.8954 27.7559 41.683 30.5622 41.683 34.2122V41.6455Z" fill="white"/>
<path fill-rule="evenodd" clip-rule="evenodd" d="M23.8003 26.242C22.4473 26.242 21.356 25.1469 21.356 23.799C21.356 22.4511 22.4473 21.356 23.8003 21.356C25.1469 21.356 26.2408 22.4511 26.2408 23.799C26.2408 25.1469 25.1469 26.242 23.8003 26.242Z" fill="white"/>
<path fill-rule="evenodd" clip-rule="evenodd" d="M25.9065 41.6457H21.6899V28.0928H25.9065V41.6457Z" fill="white"/>
</svg>
