<svg width="164" height="85" viewBox="0 0 164 85" fill="none" xmlns="http://www.w3.org/2000/svg">
<g clip-path="url(#clip0_196_286)">
<mask id="mask0_196_286" style="mask-type:luminance" maskUnits="userSpaceOnUse" x="1" y="0" width="63" height="85">
<path d="M17.6912 22.3684C20.896 21.8099 24.144 21.5282 27.3984 21.5264C36.3378 21.5264 43.1717 23.7242 46.1569 27.5509C46.2686 27.697 46.4264 27.8022 46.6054 27.8499C46.7844 27.8976 46.9745 27.8851 47.1455 27.8142C47.3259 27.7386 47.4747 27.6043 47.5672 27.4338C48.1142 27.0729 50.2032 26.3284 52.6745 25.6977C55.4489 24.9889 58.6813 24.4232 60.6715 24.7028C60.8594 24.7321 61.0208 24.7646 61.1559 24.7971C52.9974 32.0733 54.8196 37.0119 56.9218 42.7048C58.7011 47.5296 60.8758 53.4144 57.6368 62.7129C56.757 59.117 54.6713 53.9801 52.6745 50.4687C52.6416 50.407 52.6086 50.3549 52.5724 50.2932C50.5953 46.9022 48.7304 45.0067 47.0038 44.6556C46.9004 44.6064 46.7887 44.5766 46.6743 44.5678C45.6363 44.506 43.4418 45.9853 25.9782 64.9529C26.1979 64.4848 26.4318 63.9743 26.6801 63.4216C28.489 59.4746 30.7461 54.5685 31.4315 53.5574C31.5157 53.4336 31.5642 53.2896 31.5719 53.1407C31.5795 52.9918 31.546 52.8437 31.475 52.7121C31.4039 52.5805 31.2979 52.4705 31.1684 52.3938C31.0389 52.317 30.8906 52.2765 30.7395 52.2764C30.5163 52.2756 30.3018 52.3621 30.1431 52.517C26.3496 56.3436 22.1845 59.7934 17.7077 62.8169L16.739 63.4476C17.0685 63.1225 17.398 62.7974 17.7077 62.4723C20.1658 59.9656 23.0555 56.8932 25.8069 53.7655C38.0677 39.8437 37.2933 36.7161 36.8815 35.6789C36.5322 33.7282 34.6375 32.0245 31.247 30.5713C27.6784 29.0399 22.6305 27.9118 17.6912 27.268C12.9464 26.6438 8.30369 26.4617 5.17013 26.7803C8.05327 24.8296 12.5642 23.269 17.6912 22.3684ZM31.1283 0.910339C27.5669 0.921493 24.1547 2.32284 21.637 4.80828C19.1193 7.29372 17.7008 10.6613 17.6912 14.1753V20.7038C10.7717 21.8775 4.28706 24.2801 1.50935 27.8565C1.39782 28.0122 1.34436 28.2013 1.35806 28.3915C1.37177 28.5818 1.45178 28.7615 1.58452 28.9001C1.71726 29.0388 1.89455 29.1278 2.08626 29.1521C2.27798 29.1764 2.47231 29.1345 2.63625 29.0334C4.02016 28.1003 10.653 27.9898 17.6813 28.9131V60.0891C14.1886 63.724 11.4504 66.325 10.8145 66.7769L10.7519 66.8061C10.6283 66.8595 10.5196 66.9416 10.435 67.0454C10.3505 67.1492 10.2927 67.2716 10.2665 67.4022C10.2403 67.5329 10.2464 67.6678 10.2845 67.7955C10.3225 67.9233 10.3913 68.04 10.485 68.1359C10.6353 68.2809 10.8326 68.3692 11.0422 68.3852C11.2518 68.4013 11.4605 68.3441 11.6317 68.2237C13.7305 67.228 15.7554 66.0873 17.6912 64.8099V70.8279C17.7025 74.3409 19.1218 77.7067 21.6393 80.1908C24.1568 82.6748 27.5681 84.0753 31.1283 84.0864H39.2341C42.7944 84.0753 46.2056 82.6748 48.7231 80.1908C51.2406 77.7067 52.6599 74.3409 52.6712 70.8279V54.0678C55.0996 59.1788 56.7208 64.8749 56.3781 65.86C56.2935 66.0602 56.2924 66.2852 56.3751 66.4861C56.4578 66.6871 56.6176 66.8476 56.8196 66.9329C57.0232 67.0164 57.2517 67.0182 57.4565 66.9381C57.6614 66.8579 57.8266 66.7021 57.9169 66.5038C63.1461 54.7539 60.5529 47.7605 58.4836 42.1391C56.2892 36.1926 54.836 32.2586 63.067 25.3335C63.2192 25.2038 63.3192 25.0245 63.3488 24.8283C63.3785 24.632 63.3358 24.4317 63.2285 24.2639C61.8709 22.1603 56.4473 23.0642 52.6844 24.0103V14.1753C52.6731 10.6601 51.2519 7.29231 48.7316 4.8079C46.2113 2.32349 42.7967 0.924557 39.2341 0.916842L31.1283 0.910339Z" fill="white"/>
</mask>
<g mask="url(#mask0_196_286)">
<path d="M1.27893 0.000869351L0 84.0681L63.4386 85.0077L64.7175 0.940484L1.27893 0.000869351Z" fill="url(#paint0_linear_196_286)"/>
</g>
<path d="M80.1981 48.9667C79.1766 48.9667 78.3957 48.7228 77.8586 48.2286C77.2403 47.597 76.7878 46.8257 76.5406 45.982L71.2817 30.6525H74.5768L79.0811 44.7076C79.2183 45.2187 79.5159 45.6739 79.9312 46.0081C80.2472 46.2358 80.6272 46.3608 81.0185 46.3657H81.6248L86.8969 30.6395H89.2759L82.7385 48.9667H80.1981Z" fill="#009FE3"/>
<path d="M93.6351 48.9667V31.927C93.6297 31.6937 93.6496 31.4604 93.6944 31.2313C93.7339 31.062 93.8347 30.9129 93.9778 30.8119C94.2057 30.6869 94.466 30.6315 94.7258 30.6525H96.7423V48.9667H93.6351Z" fill="#009FE3"/>
<path d="M100.976 30.6525H119.336V32.444H111.701V47.6532C111.731 48.0078 111.668 48.364 111.517 48.6871C111.398 48.8724 111.095 48.9667 110.611 48.9667H108.634V32.444H100.976V30.6525Z" fill="#009FE3"/>
<path d="M123.563 48.9667V31.927C123.532 31.5832 123.602 31.2378 123.764 30.9321C123.9 30.7468 124.193 30.6525 124.651 30.6525H140.698V32.4049H126.681V38.4945H139.508V40.2469H126.681V47.2143H140.698V48.9667H123.563Z" fill="#009FE3"/>
<path d="M156.82 41.4433H152.662C151.397 41.4433 149.998 41.4563 148.464 41.4824V48.9602H145.36V32.704C145.36 31.9335 145.525 31.4036 145.864 31.111C146.204 30.8183 146.757 30.659 147.538 30.633C147.94 30.607 148.474 30.594 149.133 30.594C149.792 30.594 150.524 30.594 151.331 30.5745C152.138 30.555 152.978 30.555 153.812 30.555H156.273C157.069 30.555 157.775 30.568 158.392 30.594C159.012 30.62 159.493 30.646 159.845 30.672C161.242 30.8043 162.264 31.2627 162.91 32.0473C163.555 32.8319 163.878 33.9926 163.878 35.5294C163.921 36.5225 163.749 37.5133 163.374 38.436C163.069 39.1216 162.535 39.6837 161.862 40.0291C161.754 40.1228 161.621 40.1848 161.48 40.2079C161.301 40.2471 161.119 40.2667 160.936 40.2664V40.3477H161.621C162.643 40.533 163.269 40.9394 163.476 41.5636C163.691 42.1711 163.802 42.8093 163.806 43.4526V48.0043C163.801 48.2237 163.827 48.4426 163.885 48.6546C163.911 48.7595 163.952 48.8603 164.007 48.9537H161.829C161.52 48.9709 161.213 48.9021 160.943 48.7553C160.723 48.621 160.613 48.3023 160.613 47.7995V43.5729C160.613 42.7503 160.432 42.1846 160.069 41.8823C159.707 41.5799 159.081 41.4238 158.155 41.4238L156.82 41.4433ZM148.464 39.769C148.844 39.769 149.437 39.7755 150.244 39.7885C151.05 39.8015 151.928 39.8091 152.88 39.8112H157.295C158.156 39.8212 158.992 39.5311 159.657 38.9919C160.343 38.45 160.686 37.4357 160.686 35.9488C160.729 35.1068 160.525 34.2704 160.099 33.5396C159.889 33.234 159.611 32.9798 159.286 32.7967C158.961 32.6135 158.598 32.5062 158.224 32.483C157.528 32.3961 156.827 32.3505 156.125 32.3464C155.293 32.3334 154.433 32.3334 153.545 32.3464L151.084 32.3854C150.329 32.3854 149.766 32.4049 149.387 32.4049C149.207 32.4294 149.031 32.4763 148.863 32.5447C148.593 32.639 148.458 32.9089 148.458 33.3608L148.464 39.769Z" fill="#009FE3"/>
</g>
<defs>
<linearGradient id="paint0_linear_196_286" x1="32.6006" y1="89.1678" x2="33.7143" y2="13.9718" gradientUnits="userSpaceOnUse">
<stop stop-color="#009FE3"/>
<stop offset="1" stop-color="#F5C3B1"/>
</linearGradient>
<clipPath id="clip0_196_286">
<rect width="164" height="85" fill="white"/>
</clipPath>
</defs>
</svg>
